<svg
 xmlns="http://www.w3.org/2000/svg"
 xmlns:xlink="http://www.w3.org/1999/xlink"
 width="25px" height="25px">
<path fill-rule="evenodd"  fill="rgb(157, 198, 55)"
 d="M12.500,25.000 C5.608,25.000 0.000,19.393 0.000,12.500 C0.000,5.607 5.608,0.000 12.500,0.000 C19.392,0.000 25.000,5.607 25.000,12.500 C25.000,19.393 19.392,25.000 12.500,25.000 ZM12.500,0.962 C6.138,0.962 0.962,6.138 0.962,12.500 C0.962,18.862 6.138,24.039 12.500,24.039 C18.862,24.039 24.038,18.862 24.038,12.500 C24.038,6.138 18.862,0.962 12.500,0.962 ZM11.417,16.665 C11.323,16.772 11.190,16.827 11.058,16.827 C10.952,16.827 10.846,16.792 10.757,16.722 L5.950,12.876 C5.742,12.710 5.709,12.407 5.875,12.199 C6.040,11.993 6.343,11.959 6.550,12.124 L11.001,15.686 L18.390,7.373 C18.567,7.174 18.871,7.156 19.070,7.333 C19.268,7.509 19.286,7.813 19.110,8.012 L11.417,16.665 Z"/>
</svg>