<svg 
 xmlns="http://www.w3.org/2000/svg"
 xmlns:xlink="http://www.w3.org/1999/xlink"
 width="50px" height="50px">
<path fill-rule="evenodd"  fill="rgb(255, 255, 255)"
 d="M25.803,0.000 L26.692,0.060 C39.067,0.905 49.034,10.885 49.877,23.274 L49.938,24.164 L25.803,24.164 L25.803,0.000 ZM27.468,22.497 L48.140,22.497 C47.922,20.461 47.440,18.502 46.728,16.653 C46.710,16.654 46.695,16.663 46.677,16.663 C46.218,16.663 45.845,16.290 45.845,15.830 C45.845,15.592 45.948,15.379 46.109,15.227 C45.758,14.473 45.378,13.736 44.952,13.027 C44.988,13.121 45.012,13.222 45.012,13.330 C45.012,13.790 44.639,14.163 44.180,14.163 C43.720,14.163 43.348,13.790 43.348,13.330 C43.348,12.870 43.720,12.496 44.180,12.496 C44.406,12.496 44.611,12.588 44.761,12.735 C42.848,9.657 40.235,7.065 37.156,5.159 C37.371,5.309 37.520,5.547 37.520,5.829 C37.520,6.289 37.147,6.662 36.688,6.662 C36.228,6.662 35.855,6.289 35.855,5.829 C35.855,5.369 36.228,4.995 36.688,4.995 C36.795,4.995 36.895,5.020 36.989,5.056 C36.284,4.628 35.563,4.223 34.812,3.870 C34.659,4.045 34.442,4.162 34.191,4.162 C33.732,4.162 33.359,3.789 33.359,3.329 C33.359,3.299 33.372,3.274 33.375,3.245 C31.508,2.517 29.528,2.022 27.468,1.801 L27.468,22.497 ZM34.190,7.496 C34.650,7.496 35.023,7.869 35.023,8.329 C35.023,8.789 34.650,9.163 34.190,9.163 C33.731,9.163 33.358,8.789 33.358,8.329 C33.358,7.869 33.731,7.496 34.190,7.496 ZM31.693,21.664 C31.233,21.664 30.861,21.291 30.861,20.830 C30.861,20.370 31.233,19.997 31.693,19.997 C32.153,19.997 32.526,20.370 32.526,20.830 C32.526,21.291 32.153,21.664 31.693,21.664 ZM31.693,16.663 C31.233,16.663 30.861,16.290 30.861,15.830 C30.861,15.369 31.233,14.996 31.693,14.996 C32.153,14.996 32.526,15.369 32.526,15.830 C32.526,16.290 32.153,16.663 31.693,16.663 ZM31.693,11.663 C31.233,11.663 30.861,11.290 30.861,10.829 C30.861,10.369 31.233,9.996 31.693,9.996 C32.153,9.996 32.526,10.369 32.526,10.829 C32.526,11.290 32.153,11.663 31.693,11.663 ZM31.693,6.662 C31.233,6.662 30.861,6.289 30.861,5.829 C30.861,5.369 31.233,4.995 31.693,4.995 C32.153,4.995 32.526,5.369 32.526,5.829 C32.526,6.289 32.153,6.662 31.693,6.662 ZM29.196,19.163 C28.736,19.163 28.364,18.790 28.364,18.330 C28.364,17.870 28.736,17.497 29.196,17.497 C29.656,17.497 30.028,17.870 30.028,18.330 C30.028,18.790 29.656,19.163 29.196,19.163 ZM29.196,14.163 C28.736,14.163 28.364,13.790 28.364,13.330 C28.364,12.869 28.736,12.496 29.196,12.496 C29.656,12.496 30.028,12.869 30.028,13.330 C30.028,13.790 29.656,14.163 29.196,14.163 ZM29.196,9.163 C28.736,9.163 28.364,8.789 28.364,8.329 C28.364,7.869 28.736,7.496 29.196,7.496 C29.656,7.496 30.028,7.869 30.028,8.329 C30.028,8.789 29.656,9.163 29.196,9.163 ZM29.196,4.162 C28.736,4.162 28.364,3.789 28.364,3.329 C28.364,2.868 28.736,2.495 29.196,2.495 C29.656,2.495 30.028,2.868 30.028,3.329 C30.028,3.789 29.656,4.162 29.196,4.162 ZM34.190,12.496 C34.650,12.496 35.023,12.869 35.023,13.330 C35.023,13.790 34.650,14.163 34.190,14.163 C33.731,14.163 33.358,13.790 33.358,13.330 C33.358,12.869 33.731,12.496 34.190,12.496 ZM34.190,17.497 C34.650,17.497 35.023,17.870 35.023,18.330 C35.023,18.790 34.650,19.163 34.190,19.163 C33.731,19.163 33.358,18.790 33.358,18.330 C33.358,17.870 33.731,17.497 34.190,17.497 ZM36.688,9.996 C37.147,9.996 37.520,10.369 37.520,10.829 C37.520,11.290 37.147,11.663 36.688,11.663 C36.228,11.663 35.855,11.290 35.855,10.829 C35.855,10.369 36.228,9.996 36.688,9.996 ZM36.688,14.996 C37.147,14.996 37.520,15.369 37.520,15.830 C37.520,16.290 37.147,16.663 36.688,16.663 C36.228,16.663 35.855,16.290 35.855,15.830 C35.855,15.369 36.228,14.996 36.688,14.996 ZM36.688,19.997 C37.147,19.997 37.520,20.370 37.520,20.830 C37.520,21.291 37.147,21.664 36.688,21.664 C36.228,21.664 35.855,21.291 35.855,20.830 C35.855,20.370 36.228,19.997 36.688,19.997 ZM39.185,7.496 C39.645,7.496 40.017,7.869 40.017,8.329 C40.017,8.789 39.645,9.163 39.185,9.163 C38.725,9.163 38.352,8.789 38.352,8.329 C38.352,7.869 38.725,7.496 39.185,7.496 ZM39.185,12.496 C39.645,12.496 40.017,12.869 40.017,13.330 C40.017,13.790 39.645,14.163 39.185,14.163 C38.725,14.163 38.352,13.790 38.352,13.330 C38.352,12.869 38.725,12.496 39.185,12.496 ZM39.185,17.497 C39.645,17.497 40.017,17.870 40.017,18.330 C40.017,18.790 39.645,19.163 39.185,19.163 C38.725,19.163 38.352,18.790 38.352,18.330 C38.352,17.870 38.725,17.497 39.185,17.497 ZM41.682,9.996 C42.142,9.996 42.514,10.369 42.514,10.829 C42.514,11.290 42.142,11.663 41.682,11.663 C41.222,11.663 40.850,11.290 40.850,10.829 C40.850,10.369 41.222,9.996 41.682,9.996 ZM41.682,14.996 C42.142,14.996 42.514,15.369 42.514,15.830 C42.514,16.290 42.142,16.663 41.682,16.663 C41.222,16.663 40.850,16.290 40.850,15.830 C40.850,15.369 41.222,14.996 41.682,14.996 ZM41.682,19.997 C42.142,19.997 42.514,20.370 42.514,20.830 C42.514,21.291 42.142,21.664 41.682,21.664 C41.222,21.664 40.850,21.291 40.850,20.830 C40.850,20.370 41.222,19.997 41.682,19.997 ZM44.179,17.497 C44.639,17.497 45.012,17.870 45.012,18.330 C45.012,18.790 44.639,19.163 44.179,19.163 C43.719,19.163 43.347,18.790 43.347,18.330 C43.347,17.870 43.719,17.497 44.179,17.497 ZM46.676,19.997 C47.136,19.997 47.509,20.370 47.509,20.830 C47.509,21.291 47.136,21.664 46.676,21.664 C46.217,21.664 45.844,21.291 45.844,20.830 C45.844,20.370 46.217,19.997 46.676,19.997 ZM40.817,44.311 C36.364,47.979 30.737,50.000 24.971,50.000 C18.946,50.000 13.123,47.815 8.578,43.849 L7.905,43.263 L24.483,26.664 L41.525,43.728 L40.817,44.311 ZM24.483,29.021 L10.355,43.168 C10.696,43.442 11.054,43.691 11.409,43.946 L25.399,29.939 L24.483,29.021 ZM26.577,31.117 L12.825,44.885 C13.318,45.187 13.819,45.471 14.332,45.734 L27.754,32.296 L26.577,31.117 ZM28.931,33.474 L15.935,46.486 C16.496,46.724 17.066,46.940 17.644,47.133 L30.108,34.652 L28.931,33.474 ZM31.285,35.832 L19.472,47.660 C20.120,47.818 20.776,47.947 21.438,48.049 L32.462,37.010 L31.285,35.832 ZM33.639,38.189 L23.568,48.273 C24.035,48.301 24.501,48.333 24.971,48.333 C25.282,48.333 25.591,48.307 25.901,48.295 L34.816,39.367 L33.639,38.189 ZM35.993,40.546 L28.496,48.054 C29.528,47.895 30.543,47.657 31.542,47.362 L37.171,41.726 L35.993,40.546 ZM38.349,42.903 L35.426,45.830 C36.688,45.194 37.903,44.456 39.038,43.593 L38.349,42.903 ZM6.142,41.411 C2.181,36.859 -0.001,31.031 -0.001,24.998 C-0.001,11.904 10.212,0.951 23.249,0.060 L24.138,0.000 L24.138,24.652 L6.728,42.085 L6.142,41.411 ZM22.474,23.962 L22.474,1.801 C10.734,3.056 1.664,13.077 1.664,24.998 C1.664,30.330 3.490,35.491 6.824,39.631 L22.474,23.962 ZM50.001,25.831 L49.940,26.721 C49.556,32.362 47.228,37.768 43.384,41.942 L42.797,42.580 L26.068,25.831 L50.001,25.831 ZM48.201,27.498 L30.087,27.498 L42.737,40.163 C45.787,36.590 47.702,32.152 48.201,27.498 Z"/>
</svg>