<svg 
 xmlns="http://www.w3.org/2000/svg"
 xmlns:xlink="http://www.w3.org/1999/xlink"
 width="48px" height="50px">
<path fill-rule="evenodd"  fill="rgb(255, 255, 255)"
 d="M47.276,34.486 L34.665,47.312 L28.290,49.079 L27.865,49.512 C27.705,49.674 27.496,49.756 27.286,49.756 C27.079,49.756 26.873,49.675 26.714,49.517 L26.698,49.521 L26.702,49.504 C26.388,49.178 26.389,48.657 26.707,48.333 L27.132,47.901 L28.870,41.418 L41.482,28.593 C42.406,27.653 44.017,27.653 44.941,28.593 L47.276,30.968 C47.738,31.437 47.993,32.062 47.993,32.727 C47.993,33.391 47.738,34.016 47.276,34.486 ZM29.033,47.145 L32.661,46.139 L30.022,43.456 L29.033,47.145 ZM30.762,41.852 L34.239,45.387 L42.632,36.852 L39.155,33.316 L30.762,41.852 ZM46.117,32.147 L43.782,29.772 C43.477,29.461 42.945,29.462 42.640,29.772 L40.314,32.138 L43.791,35.673 L46.117,33.308 C46.270,33.153 46.353,32.946 46.354,32.727 C46.354,32.507 46.270,32.302 46.117,32.147 ZM9.018,38.333 L20.490,38.333 C20.943,38.333 21.310,38.707 21.310,39.167 C21.310,39.626 20.943,40.000 20.490,40.000 L9.018,40.000 C8.566,40.000 8.199,39.626 8.199,39.167 C8.199,38.707 8.566,38.333 9.018,38.333 ZM9.018,31.667 L22.949,31.667 C23.401,31.667 23.768,32.040 23.768,32.500 C23.768,32.960 23.401,33.333 22.949,33.333 L9.018,33.333 C8.566,33.333 8.199,32.960 8.199,32.500 C8.199,32.040 8.566,31.667 9.018,31.667 ZM29.504,26.667 L9.018,26.667 C8.566,26.667 8.199,26.293 8.199,25.833 C8.199,25.373 8.566,25.000 9.018,25.000 L29.504,25.000 C29.956,25.000 30.323,25.373 30.323,25.833 C30.323,26.293 29.956,26.667 29.504,26.667 ZM9.018,13.333 C8.566,13.333 8.199,12.960 8.199,12.500 C8.199,12.040 8.566,11.667 9.018,11.667 L17.213,11.667 C17.665,11.667 18.032,12.040 18.032,12.500 C18.032,12.960 17.665,13.333 17.213,13.333 L9.018,13.333 ZM30.323,19.167 C30.323,19.626 29.956,20.000 29.504,20.000 L9.018,20.000 C8.566,20.000 8.199,19.626 8.199,19.167 C8.199,18.707 8.566,18.333 9.018,18.333 L29.504,18.333 C29.956,18.333 30.323,18.707 30.323,19.167 ZM36.879,13.333 L25.407,13.333 L25.407,1.667 L1.643,1.667 L1.643,48.333 L23.768,48.333 L23.768,50.000 L0.005,50.000 L0.005,0.000 L26.566,0.000 L38.518,12.155 L38.518,28.333 L36.879,28.333 L36.879,13.333 ZM27.046,2.845 L27.046,11.667 L35.720,11.667 L27.046,2.845 Z"/>
</svg>