<svg 
 xmlns="http://www.w3.org/2000/svg"
 xmlns:xlink="http://www.w3.org/1999/xlink"
 width="60px" height="60px">
<path fill-rule="evenodd"  fill="rgb(255, 255, 255)"
 d="M59.525,35.281 C59.524,35.287 59.525,35.293 59.524,35.299 C59.519,35.326 59.512,35.352 59.507,35.379 C59.414,35.895 59.307,36.406 59.187,36.913 C59.179,36.947 59.172,36.982 59.164,37.016 C58.872,38.230 58.508,39.416 58.073,40.568 C58.070,40.578 58.072,40.589 58.068,40.599 C57.967,40.865 57.857,41.125 57.749,41.387 C57.704,41.497 57.662,41.609 57.615,41.719 C56.324,44.762 54.552,47.554 52.330,50.029 C52.316,50.046 52.294,50.052 52.279,50.067 C51.829,50.566 51.359,51.047 50.877,51.515 C50.838,51.554 50.798,51.590 50.759,51.628 C50.426,51.948 50.086,52.261 49.738,52.565 C49.633,52.658 49.527,52.750 49.420,52.841 C49.134,53.084 48.844,53.321 48.549,53.553 C48.402,53.669 48.256,53.786 48.107,53.900 C47.842,54.102 47.571,54.295 47.299,54.488 C47.127,54.610 46.959,54.737 46.784,54.855 C46.376,55.132 45.961,55.399 45.539,55.655 C45.319,55.789 45.092,55.913 44.868,56.041 C44.629,56.178 44.391,56.316 44.148,56.447 C44.075,56.485 44.007,56.529 43.934,56.567 C43.907,56.581 43.879,56.587 43.852,56.598 C39.705,58.766 34.995,60.000 30.000,60.000 C27.011,60.000 24.124,59.555 21.397,58.736 C21.385,58.733 21.372,58.735 21.360,58.731 C21.324,58.720 21.291,58.707 21.256,58.696 C20.718,58.532 20.184,58.355 19.659,58.162 C19.455,58.088 19.257,58.003 19.056,57.924 C18.761,57.808 18.467,57.693 18.177,57.568 C17.858,57.432 17.544,57.287 17.231,57.140 C17.096,57.076 16.960,57.012 16.826,56.946 C10.823,54.020 5.988,49.186 3.060,43.184 C2.990,43.043 2.923,42.900 2.855,42.757 C2.711,42.450 2.569,42.143 2.435,41.830 C2.304,41.526 2.182,41.217 2.061,40.907 C1.988,40.720 1.909,40.536 1.840,40.347 C1.644,39.817 1.466,39.278 1.300,38.734 C1.291,38.702 1.279,38.672 1.269,38.640 C1.267,38.633 1.270,38.625 1.268,38.618 C0.447,35.887 0.000,32.995 0.000,30.000 C0.000,22.744 2.591,16.082 6.897,10.889 C6.912,10.866 6.921,10.840 6.939,10.819 C8.295,9.191 9.813,7.725 11.457,6.432 C11.459,6.430 11.460,6.427 11.463,6.425 C11.474,6.416 11.486,6.408 11.498,6.399 C11.859,6.116 12.226,5.841 12.599,5.575 C12.622,5.558 12.645,5.540 12.668,5.524 C12.843,5.400 13.021,5.281 13.199,5.161 C13.233,5.137 13.268,5.114 13.303,5.091 C13.643,4.864 13.986,4.643 14.334,4.430 C14.419,4.377 14.504,4.326 14.590,4.274 C14.755,4.175 14.918,4.074 15.085,3.978 C15.226,3.897 15.370,3.822 15.512,3.743 C15.634,3.675 15.756,3.608 15.879,3.542 C16.018,3.468 16.156,3.393 16.296,3.321 C16.356,3.290 16.413,3.256 16.473,3.226 C16.487,3.219 16.502,3.219 16.515,3.213 C16.563,3.189 16.611,3.166 16.659,3.142 C16.831,3.056 17.003,2.969 17.177,2.886 C17.391,2.785 17.607,2.690 17.823,2.594 C18.044,2.496 18.263,2.395 18.487,2.302 C18.623,2.245 18.762,2.194 18.899,2.139 C20.390,1.543 21.938,1.062 23.535,0.710 C23.558,0.705 23.580,0.699 23.602,0.694 C24.001,0.607 24.404,0.530 24.809,0.459 C24.838,0.453 24.866,0.447 24.894,0.442 C24.896,0.442 24.899,0.442 24.902,0.442 C26.560,0.157 28.262,0.000 30.000,0.000 C34.126,0.000 38.061,0.838 41.642,2.353 C41.658,2.358 41.675,2.358 41.690,2.365 C44.457,3.536 47.023,5.135 49.307,7.064 C50.639,8.187 51.873,9.423 52.993,10.759 C54.897,13.026 56.475,15.570 57.636,18.310 C57.643,18.326 57.643,18.344 57.649,18.360 C59.162,21.941 60.000,25.874 60.000,30.000 C60.000,31.802 59.831,33.564 59.525,35.281 ZM51.610,47.760 C53.081,45.968 54.334,44.001 55.326,41.904 C55.344,41.865 55.363,41.827 55.381,41.788 C55.501,41.530 55.613,41.268 55.726,41.006 C55.651,41.002 55.576,41.000 55.500,41.000 C53.019,41.000 51.000,43.019 51.000,45.500 C51.000,46.306 51.213,47.080 51.610,47.760 ZM45.650,50.097 C46.058,51.032 46.148,52.047 45.933,53.006 C46.087,52.899 46.239,52.790 46.391,52.680 C46.554,52.562 46.717,52.445 46.877,52.324 C47.040,52.201 47.198,52.073 47.358,51.946 C47.567,51.781 47.776,51.616 47.979,51.444 C48.079,51.360 48.176,51.273 48.274,51.188 C48.533,50.964 48.790,50.738 49.040,50.505 C49.077,50.471 49.113,50.435 49.149,50.400 C49.525,50.047 49.887,49.681 50.242,49.308 C49.440,48.205 49.000,46.886 49.000,45.500 C49.000,41.916 51.916,39.000 55.500,39.000 C55.828,39.000 56.154,39.024 56.476,39.073 C56.882,37.896 57.215,36.690 57.459,35.460 C56.852,34.785 56.463,33.961 56.322,33.046 L56.161,32.000 L54.384,32.000 L54.092,33.519 C53.792,35.081 52.735,36.377 51.266,36.985 C49.797,37.593 48.134,37.425 46.818,36.533 L45.537,35.664 L44.280,36.922 L44.906,37.775 C45.868,39.087 46.087,40.773 45.493,42.286 C44.899,43.799 43.591,44.886 41.994,45.194 L41.000,45.384 L41.000,47.161 L42.046,47.323 C43.652,47.570 45.000,48.607 45.650,50.097 ZM3.251,38.286 C3.404,38.780 3.574,39.266 3.752,39.748 C3.835,39.972 3.926,40.193 4.015,40.414 C4.107,40.644 4.200,40.873 4.298,41.100 C4.428,41.399 4.561,41.696 4.701,41.989 C4.751,42.094 4.802,42.198 4.853,42.302 C7.589,47.872 12.122,52.405 17.692,55.143 C17.799,55.195 17.905,55.248 18.012,55.299 C18.304,55.438 18.600,55.571 18.897,55.700 C19.124,55.797 19.353,55.891 19.583,55.983 C19.805,56.072 20.026,56.164 20.251,56.247 C20.732,56.425 21.216,56.595 21.709,56.747 C21.712,56.748 21.714,56.748 21.717,56.749 C27.131,55.823 31.481,52.295 33.598,47.563 C33.606,47.541 33.603,47.517 33.613,47.495 C33.621,47.477 33.637,47.466 33.646,47.449 C34.512,45.472 35.000,43.292 35.000,41.000 C35.000,32.178 27.822,25.000 19.000,25.000 C16.994,25.000 15.072,25.369 13.297,26.040 C13.264,26.057 13.240,26.085 13.205,26.099 C13.176,26.111 13.146,26.107 13.117,26.116 C8.044,28.108 4.220,32.612 3.250,38.281 C3.250,38.283 3.251,38.284 3.251,38.286 ZM17.034,5.195 C16.841,5.296 16.654,5.410 16.463,5.516 C16.027,5.757 15.592,6.001 15.169,6.266 C15.143,6.282 15.117,6.299 15.091,6.316 C14.886,6.445 14.687,6.585 14.485,6.720 C14.067,7.000 13.652,7.284 13.250,7.584 C13.168,7.645 13.091,7.710 13.010,7.772 C13.004,7.849 13.000,7.925 13.000,8.000 C13.000,9.654 14.346,11.000 16.000,11.000 C17.654,11.000 19.000,9.654 19.000,8.000 C19.000,6.730 18.208,5.623 17.034,5.195 ZM23.421,5.102 C23.131,4.364 23.071,3.579 23.228,2.834 C22.561,3.000 21.903,3.193 21.252,3.407 C21.187,3.429 21.123,3.451 21.058,3.473 C20.428,3.685 19.805,3.917 19.193,4.173 C20.307,5.096 21.000,6.473 21.000,8.000 C21.000,10.757 18.757,13.000 16.000,13.000 C13.693,13.000 11.764,11.420 11.190,9.292 C11.055,9.414 10.919,9.536 10.786,9.661 C10.500,9.932 10.218,10.208 9.943,10.491 C9.677,10.764 9.414,11.041 9.159,11.326 C9.058,11.439 8.960,11.556 8.860,11.671 C9.202,12.804 9.028,14.013 8.351,15.013 L7.990,15.547 L8.758,16.313 L9.302,15.914 C10.406,15.106 11.826,14.920 13.101,15.420 C14.376,15.921 15.292,17.022 15.550,18.368 L15.672,19.000 L16.757,19.000 L16.791,18.781 C17.003,17.399 17.903,16.252 19.196,15.716 C20.490,15.180 21.936,15.355 23.065,16.183 L23.242,16.313 L24.010,15.546 L23.649,15.012 C22.880,13.879 22.749,12.452 23.297,11.196 C23.845,9.941 24.980,9.068 26.333,8.860 L27.000,8.758 L27.000,7.672 L26.368,7.551 C25.023,7.292 23.921,6.376 23.421,5.102 ZM52.502,13.359 C52.474,13.321 52.448,13.282 52.420,13.245 C52.217,12.974 52.005,12.710 51.792,12.446 C51.720,12.356 51.651,12.264 51.578,12.176 C51.417,11.981 51.248,11.794 51.082,11.604 C50.953,11.456 50.827,11.304 50.695,11.159 C50.640,11.099 50.583,11.043 50.528,10.984 C50.056,10.475 49.566,9.985 49.058,9.512 C48.984,9.444 48.913,9.372 48.839,9.304 C48.699,9.176 48.554,9.056 48.412,8.932 C48.217,8.761 48.023,8.588 47.823,8.422 C47.738,8.352 47.649,8.285 47.563,8.216 C47.296,8.000 47.029,7.786 46.754,7.580 C46.721,7.555 46.687,7.532 46.654,7.507 C44.966,6.255 43.132,5.190 41.184,4.338 C35.843,5.622 32.000,10.474 32.000,16.000 C32.000,22.617 37.383,28.000 44.000,28.000 C49.526,28.000 54.377,24.158 55.664,18.819 C54.813,16.875 53.752,15.044 52.502,13.359 ZM56.754,21.735 C56.188,22.985 55.453,24.137 54.568,25.154 L55.313,25.899 C55.704,26.290 55.704,26.922 55.313,27.313 C55.118,27.508 54.862,27.606 54.606,27.606 C54.350,27.606 54.094,27.508 53.899,27.313 L53.147,26.561 C50.907,28.499 48.068,29.734 45.000,29.956 L45.000,31.000 C45.000,31.553 44.552,32.000 44.000,32.000 C43.448,32.000 43.000,31.553 43.000,31.000 L43.000,29.948 C39.893,29.727 37.066,28.493 34.846,26.567 L34.101,27.312 C33.906,27.507 33.650,27.605 33.394,27.605 C33.138,27.605 32.882,27.507 32.687,27.312 C32.296,26.921 32.296,26.289 32.687,25.898 L33.432,25.153 C31.506,22.933 30.272,20.107 30.051,16.999 L29.000,16.999 C28.448,16.999 28.000,16.552 28.000,15.999 C28.000,15.446 28.448,14.999 29.000,14.999 L30.044,14.999 C30.266,11.931 31.501,9.092 33.439,6.852 L32.687,6.100 C32.296,5.709 32.296,5.077 32.687,4.686 C33.078,4.295 33.710,4.295 34.101,4.686 L34.846,5.431 C35.863,4.546 37.015,3.811 38.265,3.246 C35.651,2.437 32.876,2.000 30.000,2.000 C28.514,2.000 27.055,2.119 25.631,2.343 L25.526,2.485 C25.119,3.040 25.030,3.728 25.282,4.370 C25.534,5.013 26.067,5.456 26.745,5.586 L28.188,5.863 C28.660,5.953 29.000,6.366 29.000,6.845 L29.000,9.615 C29.000,10.108 28.640,10.528 28.150,10.603 L26.635,10.836 C25.953,10.940 25.404,11.363 25.128,11.995 C24.852,12.628 24.916,13.319 25.303,13.891 L26.128,15.109 C26.397,15.506 26.346,16.038 26.007,16.377 L24.049,18.334 C23.700,18.684 23.149,18.726 22.751,18.434 L21.882,17.797 C21.321,17.386 20.603,17.297 19.961,17.566 C19.319,17.831 18.872,18.399 18.767,19.087 L18.603,20.152 C18.528,20.640 18.109,21.000 17.615,21.000 L14.846,21.000 C14.367,21.000 13.955,20.660 13.864,20.190 L13.586,18.747 C13.455,18.068 13.012,17.535 12.370,17.283 C11.727,17.030 11.041,17.120 10.484,17.528 L9.248,18.434 C8.849,18.726 8.299,18.684 7.950,18.334 L5.992,16.377 C5.883,16.269 5.815,16.138 5.767,16.000 C3.376,20.122 2.000,24.902 2.000,30.000 C2.000,31.454 2.112,32.883 2.327,34.279 C4.057,29.932 7.378,26.494 11.552,24.607 L11.068,23.363 C10.868,22.848 11.123,22.268 11.638,22.069 C12.151,21.867 12.732,22.123 12.932,22.638 L13.419,23.891 C15.181,23.322 17.052,23.000 19.000,23.000 C21.248,23.000 23.392,23.433 25.377,24.189 L26.086,22.594 C26.311,22.090 26.901,21.863 27.406,22.086 C27.911,22.310 28.138,22.901 27.914,23.406 L27.206,24.999 C30.800,26.850 33.687,29.871 35.371,33.561 L36.638,33.069 C37.155,32.866 37.732,33.123 37.932,33.638 C38.132,34.153 37.877,34.732 37.362,34.932 L36.104,35.421 C36.679,37.179 37.000,39.052 37.000,41.000 C37.000,43.247 36.591,45.402 35.843,47.391 L37.407,48.086 C37.912,48.310 38.139,48.901 37.915,49.406 C37.749,49.778 37.383,50.000 37.000,50.000 C36.864,50.000 36.726,49.973 36.593,49.913 L35.022,49.215 C33.074,53.029 29.798,56.051 25.722,57.673 C27.117,57.888 28.546,58.000 30.000,58.000 C34.511,58.000 38.773,56.921 42.552,55.018 L43.577,53.505 C44.102,52.730 44.192,51.754 43.818,50.897 C43.443,50.038 42.667,49.442 41.742,49.299 L39.848,49.008 C39.360,48.933 39.000,48.513 39.000,48.020 L39.000,44.558 C39.000,44.078 39.340,43.666 39.812,43.576 L41.617,43.229 C42.536,43.052 43.289,42.426 43.631,41.555 C43.973,40.684 43.847,39.713 43.293,38.958 L42.160,37.413 C41.869,37.014 41.911,36.463 42.260,36.114 L44.707,33.666 C45.046,33.328 45.579,33.276 45.975,33.545 L47.940,34.877 C48.709,35.400 49.644,35.493 50.501,35.138 C51.359,34.783 51.952,34.055 52.128,33.143 L52.576,30.812 C52.666,30.340 53.079,30.000 53.558,30.000 L57.019,30.000 C57.484,30.000 57.873,30.325 57.980,30.770 C57.987,30.513 58.000,30.258 58.000,30.000 C58.000,27.124 57.563,24.349 56.754,21.735 ZM44.000,20.000 C41.794,20.000 40.000,18.206 40.000,16.000 C40.000,13.794 41.794,12.000 44.000,12.000 C46.206,12.000 48.000,13.794 48.000,16.000 C48.000,18.206 46.206,20.000 44.000,20.000 ZM44.000,14.000 C42.897,14.000 42.000,14.897 42.000,16.000 C42.000,17.103 42.897,18.000 44.000,18.000 C45.103,18.000 46.000,17.103 46.000,16.000 C46.000,14.897 45.103,14.000 44.000,14.000 ZM19.000,33.000 C23.411,33.000 27.000,36.589 27.000,41.000 C27.000,45.411 23.411,49.000 19.000,49.000 C14.589,49.000 11.000,45.411 11.000,41.000 C11.000,36.589 14.589,33.000 19.000,33.000 ZM19.000,47.000 C22.309,47.000 25.000,44.309 25.000,41.000 C25.000,37.691 22.309,35.000 19.000,35.000 C15.691,35.000 13.000,37.691 13.000,41.000 C13.000,44.309 15.691,47.000 19.000,47.000 ZM19.000,37.000 C21.206,37.000 23.000,38.794 23.000,41.000 C23.000,43.206 21.206,45.000 19.000,45.000 C16.794,45.000 15.000,43.206 15.000,41.000 C15.000,38.794 16.794,37.000 19.000,37.000 ZM19.000,43.000 C20.103,43.000 21.000,42.103 21.000,41.000 C21.000,39.897 20.103,39.000 19.000,39.000 C17.897,39.000 17.000,39.897 17.000,41.000 C17.000,42.103 17.897,43.000 19.000,43.000 Z"/>
</svg>