<svg 
 xmlns="http://www.w3.org/2000/svg"
 xmlns:xlink="http://www.w3.org/1999/xlink"
 width="55px" height="38px">
<path fill-rule="evenodd"  fill="rgb(255, 255, 255)"
 d="M53.554,38.000 L1.447,38.000 C0.649,38.000 0.000,37.359 0.000,36.572 L0.000,33.999 C0.000,33.212 0.649,32.571 1.447,32.571 L2.750,32.571 L2.750,3.680 C2.750,1.650 4.422,-0.000 6.477,-0.000 L48.523,-0.000 C50.578,-0.000 52.250,1.650 52.250,3.680 L52.250,32.571 L53.554,32.571 C54.351,32.571 55.000,33.212 55.000,33.999 L55.000,36.572 C55.000,37.359 54.351,38.000 53.554,38.000 ZM50.417,3.680 C50.417,2.648 49.567,1.810 48.522,1.810 L6.477,1.810 C5.433,1.810 4.583,2.648 4.583,3.680 L4.583,32.571 L23.647,32.571 L23.865,33.171 C23.920,33.323 24.073,33.476 24.292,33.476 L31.625,33.476 C31.843,33.476 31.996,33.323 32.052,33.171 L32.269,32.571 L50.417,32.571 L50.417,3.680 ZM53.167,34.381 L52.250,34.381 L33.450,34.381 C33.025,34.939 32.352,35.286 31.625,35.286 L24.292,35.286 C23.565,35.286 22.892,34.939 22.467,34.381 L2.750,34.381 L1.833,34.381 L1.833,36.190 L53.167,36.190 L53.167,34.381 ZM5.500,2.714 L49.500,2.714 L49.500,31.667 L5.500,31.667 L5.500,2.714 ZM7.333,29.857 L47.667,29.857 L47.667,4.524 L7.333,4.524 L7.333,29.857 ZM23.565,9.687 C23.386,9.864 23.151,9.952 22.917,9.952 C22.682,9.952 22.447,9.864 22.269,9.687 C21.910,9.333 21.910,8.762 22.269,8.408 L23.185,7.503 C23.544,7.149 24.123,7.149 24.481,7.503 C24.840,7.857 24.840,8.429 24.481,8.783 L23.565,9.687 ZM21.734,11.500 C21.560,11.662 21.322,11.762 21.083,11.762 C20.845,11.762 20.606,11.662 20.432,11.500 C20.267,11.328 20.167,11.092 20.167,10.857 C20.167,10.622 20.267,10.387 20.432,10.215 C20.781,9.880 21.395,9.880 21.734,10.215 C21.899,10.387 22.000,10.613 22.000,10.857 C22.000,11.092 21.899,11.328 21.734,11.500 ZM17.148,11.497 C16.969,11.673 16.735,11.762 16.500,11.762 C16.265,11.762 16.031,11.673 15.852,11.497 C15.494,11.143 15.494,10.571 15.852,10.217 L18.602,7.503 C18.960,7.149 19.540,7.149 19.898,7.503 C20.257,7.857 20.257,8.429 19.898,8.783 L17.148,11.497 ZM11.648,12.402 C11.469,12.578 11.235,12.667 11.000,12.667 C10.765,12.667 10.531,12.578 10.352,12.402 C9.994,12.048 9.994,11.476 10.352,11.122 L14.019,7.503 C14.377,7.149 14.956,7.149 15.315,7.503 C15.673,7.857 15.673,8.429 15.315,8.783 L11.648,12.402 ZM12.185,13.837 C12.544,13.483 13.123,13.483 13.481,13.837 C13.840,14.190 13.840,14.762 13.481,15.116 L11.648,16.925 C11.469,17.102 11.235,17.190 11.000,17.190 C10.765,17.190 10.531,17.102 10.352,16.925 C9.994,16.572 9.994,16.000 10.352,15.646 L12.185,13.837 ZM14.016,13.309 C13.850,13.137 13.750,12.902 13.750,12.667 C13.750,12.431 13.850,12.196 14.016,12.024 C14.345,11.699 14.978,11.689 15.318,12.024 C15.483,12.196 15.583,12.431 15.583,12.667 C15.583,12.902 15.483,13.137 15.318,13.309 C15.143,13.472 14.905,13.571 14.667,13.571 C14.428,13.571 14.189,13.472 14.016,13.309 ZM18.602,12.027 C18.960,11.673 19.540,11.673 19.898,12.027 C20.257,12.381 20.257,12.952 19.898,13.306 L11.648,21.449 C11.469,21.626 11.235,21.714 11.000,21.714 C10.765,21.714 10.531,21.626 10.352,21.449 C9.994,21.095 9.994,20.523 10.352,20.170 L18.602,12.027 Z"/>
</svg>