<svg 
 xmlns="http://www.w3.org/2000/svg"
 xmlns:xlink="http://www.w3.org/1999/xlink"
 width="30px" height="50px">
<path fill-rule="evenodd"  fill="rgb(255, 255, 255)"
 d="M27.427,50.000 L2.573,50.000 C1.154,50.000 -0.000,48.846 -0.000,47.427 L-0.000,42.500 L-0.000,5.000 L-0.000,2.574 C-0.000,1.154 1.154,0.000 2.573,0.000 L27.427,0.000 C28.846,0.000 30.000,1.154 30.000,2.574 L30.000,5.000 L30.000,42.500 L30.000,47.427 C30.000,48.846 28.846,50.000 27.427,50.000 ZM28.333,2.574 C28.333,2.073 27.927,1.667 27.427,1.667 L2.573,1.667 C2.073,1.667 1.667,2.073 1.667,2.574 L1.667,5.000 L28.333,5.000 L28.333,2.574 ZM28.333,6.667 L1.667,6.667 L1.667,40.833 L28.333,40.833 L28.333,6.667 ZM28.333,42.500 L1.667,42.500 L1.667,47.427 C1.667,47.927 2.073,48.333 2.573,48.333 L27.427,48.333 C27.927,48.333 28.333,47.927 28.333,47.427 L28.333,42.500 ZM17.083,47.500 L12.917,47.500 C11.768,47.500 10.833,46.566 10.833,45.417 C10.833,44.268 11.768,43.334 12.917,43.334 L17.083,43.334 C18.232,43.334 19.167,44.268 19.167,45.417 C19.167,46.566 18.232,47.500 17.083,47.500 ZM17.083,45.000 L12.917,45.000 C12.691,45.000 12.500,45.191 12.500,45.417 C12.500,45.643 12.691,45.833 12.917,45.833 L17.083,45.833 C17.309,45.833 17.500,45.643 17.500,45.417 C17.500,45.191 17.309,45.000 17.083,45.000 ZM2.744,11.078 L6.077,7.744 C6.403,7.418 6.930,7.418 7.256,7.744 C7.582,8.070 7.582,8.597 7.256,8.923 L3.923,12.256 C3.760,12.419 3.547,12.500 3.333,12.500 C3.120,12.500 2.907,12.419 2.744,12.256 C2.418,11.930 2.418,11.404 2.744,11.078 ZM2.744,15.244 L4.411,13.578 C4.737,13.252 5.263,13.252 5.589,13.578 C5.915,13.903 5.915,14.430 5.589,14.756 L3.923,16.423 C3.760,16.585 3.547,16.667 3.333,16.667 C3.120,16.667 2.907,16.585 2.744,16.423 C2.418,16.097 2.418,15.570 2.744,15.244 ZM2.744,19.411 L10.244,11.911 C10.570,11.585 11.097,11.585 11.423,11.911 C11.748,12.237 11.748,12.763 11.423,13.089 L3.923,20.589 C3.760,20.752 3.547,20.833 3.333,20.833 C3.120,20.833 2.907,20.752 2.744,20.589 C2.418,20.263 2.418,19.737 2.744,19.411 ZM11.908,10.242 C12.217,9.934 12.783,9.934 13.092,10.250 C13.242,10.399 13.333,10.608 13.333,10.833 C13.333,11.050 13.242,11.267 13.092,11.425 C12.933,11.575 12.717,11.667 12.500,11.667 C12.283,11.667 12.066,11.575 11.908,11.425 C11.758,11.267 11.667,11.050 11.667,10.833 C11.667,10.608 11.758,10.399 11.908,10.242 ZM13.577,8.578 L14.411,7.744 C14.737,7.418 15.263,7.418 15.589,7.744 C15.915,8.070 15.915,8.597 15.589,8.923 L14.756,9.756 C14.593,9.918 14.380,10.000 14.167,10.000 C13.953,10.000 13.740,9.918 13.577,9.756 C13.252,9.430 13.252,8.903 13.577,8.578 ZM7.258,13.092 C7.100,13.242 6.883,13.334 6.667,13.334 C6.450,13.334 6.233,13.242 6.075,13.092 C5.924,12.933 5.833,12.717 5.833,12.500 C5.833,12.274 5.924,12.066 6.075,11.909 C6.383,11.600 6.950,11.600 7.258,11.909 C7.408,12.066 7.500,12.283 7.500,12.500 C7.500,12.717 7.408,12.933 7.258,13.092 ZM11.423,8.923 L8.923,11.423 C8.760,11.585 8.547,11.667 8.333,11.667 C8.120,11.667 7.907,11.585 7.744,11.423 C7.418,11.097 7.418,10.570 7.744,10.244 L10.244,7.744 C10.570,7.418 11.097,7.418 11.423,7.744 C11.748,8.070 11.748,8.597 11.423,8.923 ZM3.575,2.742 C3.883,2.434 4.442,2.434 4.758,2.742 C4.908,2.899 5.000,3.117 5.000,3.334 C5.000,3.550 4.908,3.767 4.758,3.925 C4.600,4.083 4.383,4.167 4.167,4.167 C3.950,4.167 3.733,4.075 3.575,3.925 C3.424,3.767 3.333,3.550 3.333,3.334 C3.333,3.108 3.424,2.899 3.575,2.742 ZM12.500,2.500 L17.500,2.500 C17.961,2.500 18.333,2.873 18.333,3.334 C18.333,3.794 17.961,4.167 17.500,4.167 L12.500,4.167 C12.039,4.167 11.667,3.794 11.667,3.334 C11.667,2.873 12.039,2.500 12.500,2.500 ZM20.833,2.500 L21.667,2.500 C22.127,2.500 22.500,2.873 22.500,3.334 C22.500,3.794 22.127,4.167 21.667,4.167 L20.833,4.167 C20.372,4.167 20.000,3.794 20.000,3.334 C20.000,2.873 20.372,2.500 20.833,2.500 ZM24.167,2.500 L25.000,2.500 C25.461,2.500 25.833,2.873 25.833,3.334 C25.833,3.794 25.461,4.167 25.000,4.167 L24.167,4.167 C23.706,4.167 23.333,3.794 23.333,3.334 C23.333,2.873 23.706,2.500 24.167,2.500 Z"/>
</svg>