<svg 
 xmlns="http://www.w3.org/2000/svg"
 xmlns:xlink="http://www.w3.org/1999/xlink"
 width="46px" height="50px">
<path fill-rule="evenodd"  fill="rgb(255, 255, 255)"
 d="M32.954,18.491 C33.277,18.253 33.724,18.288 34.008,18.578 C34.292,18.867 34.327,19.324 34.093,19.655 L26.456,30.442 C25.954,31.147 25.180,31.590 24.331,31.657 C24.254,31.663 24.179,31.667 24.103,31.667 C23.335,31.667 22.597,31.357 22.050,30.797 C21.449,30.183 21.141,29.333 21.207,28.466 C21.273,27.598 21.706,26.807 22.395,26.296 L32.954,18.491 ZM23.202,29.618 C23.467,29.889 23.832,30.021 24.203,29.996 C24.576,29.966 24.916,29.772 25.136,29.463 L29.794,22.883 L23.353,27.644 C23.053,27.867 22.862,28.215 22.834,28.596 C22.804,28.976 22.940,29.349 23.202,29.618 ZM42.545,11.590 L41.392,10.412 L39.640,12.201 C40.747,13.419 41.723,14.763 42.547,16.208 C42.558,16.224 42.573,16.233 42.583,16.250 C42.592,16.267 42.592,16.286 42.600,16.303 C44.462,19.603 45.533,23.425 45.533,27.500 C45.533,31.575 44.462,35.397 42.600,38.697 C42.591,38.714 42.592,38.733 42.582,38.750 C42.569,38.775 42.549,38.792 42.533,38.815 C40.610,42.178 37.857,44.987 34.563,46.949 C34.547,46.960 34.538,46.976 34.522,46.986 C34.497,47.001 34.470,47.007 34.445,47.018 C31.263,48.887 27.584,49.968 23.664,49.996 C23.657,49.996 23.652,50.000 23.645,50.000 C23.640,50.000 23.636,49.997 23.631,49.997 C23.591,49.998 23.552,50.000 23.512,50.000 C21.862,50.000 20.199,49.807 18.571,49.423 C18.133,49.321 17.858,48.873 17.959,48.425 C18.059,47.977 18.497,47.692 18.936,47.799 C20.222,48.101 21.529,48.268 22.831,48.313 L22.831,46.667 C22.831,46.206 23.196,45.833 23.647,45.833 C24.098,45.833 24.462,46.206 24.462,46.667 L24.462,48.307 C27.530,48.162 30.420,47.321 32.990,45.936 L32.186,44.513 C31.960,44.115 32.094,43.605 32.485,43.375 C32.873,43.144 33.373,43.280 33.599,43.680 L34.400,45.099 C36.952,43.445 39.120,41.230 40.739,38.622 L39.350,37.803 C38.960,37.573 38.827,37.064 39.052,36.665 C39.277,36.265 39.776,36.130 40.166,36.360 L41.558,37.182 C42.932,34.518 43.759,31.517 43.882,28.332 L42.271,28.332 C41.820,28.332 41.455,27.960 41.455,27.499 C41.455,27.038 41.820,26.666 42.271,26.666 L43.882,26.666 C43.759,23.482 42.932,20.480 41.558,17.817 L40.166,18.638 C40.038,18.714 39.897,18.750 39.759,18.750 C39.477,18.750 39.203,18.601 39.052,18.333 C38.826,17.934 38.960,17.425 39.349,17.195 L40.738,16.376 C39.119,13.768 36.951,11.553 34.399,9.899 L33.597,11.318 C33.446,11.586 33.172,11.735 32.890,11.735 C32.751,11.735 32.611,11.699 32.483,11.623 C32.093,11.393 31.959,10.884 32.184,10.485 L32.989,9.062 C30.419,7.677 27.528,6.836 24.461,6.692 L24.461,8.333 C24.461,8.794 24.096,9.167 23.645,9.167 C23.194,9.167 22.830,8.794 22.830,8.333 L22.830,6.686 C22.590,6.697 22.344,6.713 22.076,6.733 L21.201,6.802 C20.442,6.892 19.684,7.024 18.934,7.200 C18.495,7.304 18.057,7.023 17.956,6.574 C17.855,6.126 18.130,5.678 18.569,5.576 C19.438,5.373 20.318,5.226 21.198,5.130 L21.198,4.167 L19.975,4.167 C18.850,4.167 17.936,3.233 17.936,2.083 C17.936,0.934 18.850,-0.000 19.975,-0.000 L27.315,-0.000 C28.440,-0.000 29.355,0.934 29.355,2.083 C29.355,3.233 28.441,4.167 27.316,4.167 L26.093,4.167 L26.093,5.159 C29.115,5.522 31.949,6.511 34.471,7.996 C34.488,8.005 34.506,8.004 34.524,8.014 C34.540,8.024 34.549,8.040 34.564,8.051 C35.979,8.893 37.294,9.891 38.486,11.022 L40.238,9.233 L39.084,8.054 L42.545,4.519 L46.005,8.054 L42.545,11.590 ZM27.315,2.500 C27.540,2.500 27.723,2.313 27.723,2.083 C27.723,1.854 27.540,1.667 27.315,1.667 L19.975,1.667 C19.751,1.667 19.567,1.854 19.567,2.083 C19.567,2.313 19.751,2.500 19.975,2.500 L22.830,2.500 L22.830,5.017 C22.927,5.013 23.016,5.014 23.111,5.012 C23.245,5.009 23.378,5.000 23.512,5.000 C23.533,5.000 23.553,5.002 23.573,5.002 C23.596,5.002 23.622,5.000 23.645,5.000 C23.906,5.000 24.177,5.006 24.461,5.017 L24.461,2.500 L27.315,2.500 ZM42.544,6.876 L41.390,8.054 L42.544,9.233 L43.697,8.054 L42.544,6.876 ZM16.305,42.500 L10.596,42.500 C10.145,42.500 9.780,42.128 9.780,41.667 C9.780,41.206 10.145,40.833 10.596,40.833 L16.305,40.833 C16.756,40.833 17.120,41.206 17.120,41.667 C17.120,42.128 16.756,42.500 16.305,42.500 ZM16.305,36.667 L5.702,36.667 C5.251,36.667 4.887,36.294 4.887,35.833 C4.887,35.373 5.251,35.000 5.702,35.000 L16.305,35.000 C16.756,35.000 17.120,35.373 17.120,35.833 C17.120,36.294 16.756,36.667 16.305,36.667 ZM16.305,30.833 L0.809,30.833 C0.358,30.833 -0.007,30.461 -0.007,30.000 C-0.007,29.539 0.358,29.167 0.809,29.167 L16.305,29.167 C16.756,29.167 17.120,29.539 17.120,30.000 C17.120,30.461 16.756,30.833 16.305,30.833 ZM16.305,25.000 L4.071,25.000 C3.620,25.000 3.255,24.628 3.255,24.167 C3.255,23.706 3.620,23.333 4.071,23.333 L16.305,23.333 C16.756,23.333 17.120,23.706 17.120,24.167 C17.120,24.628 16.756,25.000 16.305,25.000 ZM16.305,19.167 L8.149,19.167 C7.698,19.167 7.333,18.794 7.333,18.333 C7.333,17.873 7.698,17.500 8.149,17.500 L16.305,17.500 C16.756,17.500 17.120,17.873 17.120,18.333 C17.120,18.794 16.756,19.167 16.305,19.167 ZM16.305,13.333 L12.227,13.333 C11.776,13.333 11.411,12.961 11.411,12.500 C11.411,12.039 11.776,11.667 12.227,11.667 L16.305,11.667 C16.756,11.667 17.120,12.039 17.120,12.500 C17.120,12.961 16.756,13.333 16.305,13.333 Z"/>
</svg>