<svg 
 xmlns="http://www.w3.org/2000/svg"
 xmlns:xlink="http://www.w3.org/1999/xlink"
 width="50px" height="50px">
<path fill-rule="evenodd"  fill="rgb(255, 255, 255)"
 d="M44.545,-0.000 C41.537,-0.000 39.091,2.446 39.091,5.454 C39.091,6.395 39.330,7.281 39.751,8.054 L30.816,16.990 C29.584,16.031 28.042,15.454 26.364,15.454 C24.685,15.454 23.144,16.031 21.911,16.989 L14.939,10.017 C15.259,9.476 15.455,8.854 15.455,8.182 C15.455,6.176 13.824,4.545 11.818,4.545 C9.813,4.545 8.182,6.176 8.182,8.182 C8.182,10.187 9.813,11.818 11.818,11.818 C12.491,11.818 13.113,11.623 13.654,11.303 L20.625,18.274 C19.667,19.507 19.091,21.049 19.091,22.727 C19.091,24.405 19.667,25.947 20.625,27.179 L9.113,38.693 C8.144,37.813 6.863,37.273 5.455,37.273 C2.446,37.273 0.000,39.719 0.000,42.727 C0.000,45.735 2.446,48.182 5.455,48.182 C8.463,48.182 10.909,45.735 10.909,42.727 C10.909,41.786 10.670,40.901 10.249,40.127 L21.912,28.464 C22.917,29.246 24.130,29.770 25.455,29.936 L25.455,39.173 C22.880,39.607 20.910,41.847 20.910,44.545 C20.910,47.554 23.356,50.000 26.365,50.000 C29.373,50.000 31.819,47.554 31.819,44.545 C31.819,41.848 29.849,39.608 27.274,39.173 L27.274,29.936 C28.599,29.770 29.812,29.246 30.817,28.464 L37.789,35.436 C37.468,35.978 37.273,36.600 37.273,37.273 C37.273,39.278 38.904,40.909 40.909,40.909 C42.915,40.909 44.545,39.278 44.545,37.273 C44.545,35.267 42.915,33.636 40.909,33.636 C40.236,33.636 39.615,33.832 39.074,34.152 L32.102,27.180 C33.060,25.947 33.636,24.405 33.636,22.727 C33.636,21.049 33.060,19.507 32.102,18.275 L40.888,9.489 C41.856,10.368 43.137,10.909 44.545,10.909 C47.554,10.909 50.000,8.463 50.000,5.454 C50.000,2.446 47.554,-0.000 44.545,-0.000 ZM10.000,8.182 C10.000,7.179 10.815,6.364 11.818,6.364 C12.821,6.364 13.636,7.179 13.636,8.182 C13.636,9.184 12.821,10.000 11.818,10.000 C10.815,10.000 10.000,9.184 10.000,8.182 ZM5.455,46.364 C3.449,46.364 1.818,44.733 1.818,42.727 C1.818,40.722 3.449,39.091 5.455,39.091 C7.460,39.091 9.091,40.722 9.091,42.727 C9.091,44.733 7.460,46.364 5.455,46.364 ZM30.000,44.545 C30.000,46.551 28.369,48.182 26.364,48.182 C24.358,48.182 22.727,46.551 22.727,44.545 C22.727,42.540 24.358,40.909 26.364,40.909 C28.369,40.909 30.000,42.540 30.000,44.545 ZM26.364,28.182 C23.355,28.182 20.909,25.735 20.909,22.727 C20.909,19.719 23.355,17.273 26.364,17.273 C29.372,17.273 31.818,19.719 31.818,22.727 C31.818,25.735 29.372,28.182 26.364,28.182 ZM42.727,37.273 C42.727,38.275 41.912,39.091 40.909,39.091 C39.906,39.091 39.091,38.275 39.091,37.273 C39.091,36.270 39.906,35.454 40.909,35.454 C41.912,35.454 42.727,36.270 42.727,37.273 ZM44.545,9.091 C42.540,9.091 40.909,7.460 40.909,5.454 C40.909,3.449 42.540,1.818 44.545,1.818 C46.551,1.818 48.182,3.449 48.182,5.454 C48.182,7.460 46.551,9.091 44.545,9.091 Z"/>
</svg>