
<svg 
 xmlns="http://www.w3.org/2000/svg"
 xmlns:xlink="http://www.w3.org/1999/xlink"
 width="55px" height="43px">
<path fill-rule="evenodd"  fill="rgb(255, 255, 255)"
 d="M54.083,42.031 L48.583,42.031 L41.250,42.031 L27.500,42.031 L13.750,42.031 L6.417,42.031 L0.917,42.031 C0.367,42.031 0.000,41.666 0.000,41.118 L0.000,12.794 C0.000,12.429 0.183,12.063 0.550,11.972 L27.133,0.094 C27.408,0.003 27.683,0.003 27.867,0.094 L54.450,11.972 C54.816,12.154 55.000,12.429 55.000,12.794 L55.000,41.118 C55.000,41.666 54.633,42.031 54.083,42.031 ZM7.333,40.204 L10.062,40.204 L17.438,40.204 L23.811,40.204 L31.188,40.204 L41.250,40.204 L44.938,40.204 L47.666,40.204 L47.666,24.672 L7.333,24.672 L7.333,40.204 ZM7.333,22.844 L47.666,22.844 L47.666,18.276 L7.333,18.276 L7.333,22.844 ZM53.166,13.342 L27.500,1.921 L1.833,13.342 L1.833,40.204 L5.500,40.204 L5.500,23.758 L5.500,17.362 C5.500,16.814 5.867,16.449 6.417,16.449 L48.583,16.449 C49.133,16.449 49.500,16.814 49.500,17.362 L49.500,23.758 L49.500,40.204 L53.166,40.204 L53.166,13.342 ZM30.250,14.621 L27.500,14.621 L24.750,14.621 C23.192,14.621 22.000,13.433 22.000,11.880 L22.000,9.139 C22.000,7.586 23.192,6.398 24.750,6.398 L27.500,6.398 L30.250,6.398 C31.808,6.398 33.000,7.586 33.000,9.139 L33.000,11.880 C33.000,13.433 31.808,14.621 30.250,14.621 ZM26.583,8.226 L24.750,8.226 C24.200,8.226 23.833,8.591 23.833,9.139 L23.833,11.880 C23.833,12.429 24.200,12.794 24.750,12.794 L26.583,12.794 L26.583,8.226 ZM31.167,9.139 C31.167,8.591 30.800,8.226 30.250,8.226 L28.417,8.226 L28.417,12.794 L30.250,12.794 C30.800,12.794 31.167,12.429 31.167,11.880 L31.167,9.139 Z"/>
</svg>