<svg xmlns="http://www.w3.org/2000/svg" version="1.1" id="Layer_1" x="0" y="0" viewBox="0 0 654.4 149.6" xml:space="preserve">
  <style type="text/css">
    
	.st0{fill:#FFFFFF;}
	.st1{fill:url(#SVGID_1_);}
	.st2{fill:url(#SVGID_2_);}
	.st3{fill:url(#SVGID_3_);}
	.st4{fill:url(#SVGID_4_);}
	.st5{fill:url(#SVGID_5_);}
	.st6{fill:url(#SVGID_6_);}
	.st7{fill:url(#SVGID_7_);}
	.st8{fill:url(#SVGID_8_);}
	.st9{opacity:0.5;fill:#FFFFFF;}

  </style>
  <path class="st0" d="M166.5 78.6c0-21.5 17.3-38.7 38.8-38.7 9.2 0 16.9 1.7 24.2 6.2 2 1.3 2.5 3.1 1.3 5.3l-1.1 1.8c-1.2 2.3-3 2.7-5.3 1.4 -8.3-4.5-13.4-4.6-19.1-4.6C190.1 50 178 62.6 178 78.5c0 14.3 9.6 28.2 28.8 28.2 6.5 0 12-1.6 17.1-4.8V87.1H207c-2.5 0-3.8-1.5-3.8-3.9v-1.3c0-2.5 1.4-3.8 3.8-3.8h23.3c2.5 0 3.8 1.4 3.8 3.8v21.5c0 2-0.9 3.7-3.3 5.6 -8.5 6.3-17.8 7.8-24.6 7.8C183.1 116.8 166.5 99.6 166.5 78.6z"/>
  <path class="st0" d="M240.4 89.1c0-15.6 12.2-28 28.8-28 13.4 0 25.7 8 27.2 25 0.3 2.6-1.2 3.9-3.7 3.9h-41.4c-0.3 9.9 7.9 17.2 19.5 17.2 5.2 0 9.9-1.4 14.5-4.5 2-1.3 3.7-1.2 5.4 0.5l0.7 0.9c1.7 1.8 1.7 4.1-0.7 6.1 -6.2 5-13.3 6.6-20 6.6C252 116.8 240.4 104.4 240.4 89.1zM285.5 82c-2.8-9.5-10.2-11.5-16.1-11.5 -6.2 0-13.9 2.5-17.2 11.5H285.5z"/>
  <path class="st0" d="M306.6 98.7V70.8h-6.5c-1.4 0-2.1-0.9-2.1-2.2v-4.2c0-1.4 0.7-2.1 2.1-2.1h6.7l1.9-12.3c0.3-2 1.5-3.1 3.4-3.1h2.2c2 0 3.2 1.3 3.2 3.3v12h14.6c1.4 0 2.1 0.7 2.1 2.1v4.2c0 1.4-0.7 2.2-2.1 2.2h-14.6v28.6c0 5.8 2.8 8 6.2 8 3.3 0 6.3-1.9 6.3-5.8 0-0.4 0-1.2-0.2-2 -0.2-1.5 0.4-2.5 1.9-2.5h4.9c1.3 0 2.2 0.5 2.5 1.9 0.4 1.8 0.4 3.8 0.4 3.9 0 8-5.8 13.9-16 13.9C315.1 116.8 306.6 112.5 306.6 98.7z"/>
  <path class="st0" d="M343.2 79.9c0-20.8 15-38.5 40.4-38.5 9.3 0 16 2.3 21.7 6.1 2 1.4 2.5 3.1 1.3 5.3l-1 1.7c-1.2 2.1-3 2.6-5.3 1.3 -4.7-2.6-10.9-4.3-16.7-4.3 -18.3 0-28.9 13-28.9 28.4 0 15.3 10.6 28.4 28.9 28.4 5.9 0 12-1.7 16.7-4.3 2.3-1.3 4.2-0.9 5.3 1.3l1 1.7c1.2 2.2 1 3.7-0.6 4.9 -5.9 3.9-12.7 6.5-22.4 6.5C358.3 118.4 343.2 100.7 343.2 79.9z"/>
  <path class="st0" d="M411 90.5c0-15.3 10.6-27.8 26.4-27.8 7.1 0 14.1 2.5 19.1 9.6v-4.6c0-2.5 1.5-3.8 3.9-3.8h3.2c2.5 0 3.8 1.4 3.8 3.8v45.7c0 2.5-1.4 3.8-3.8 3.8h-3.2c-2.5 0-3.9-1.4-3.9-3.8v-4.6c-5 7.1-11.9 9.6-19.1 9.6C421.6 118.4 411 105.8 411 90.5zM456.8 90.5c-0.1-10.6-7.2-18.3-17.8-18.3 -10.8 0-16.9 8.4-16.9 18.3 0 10 6.2 18.3 16.9 18.3C449.5 108.8 456.7 101 456.8 90.5z"/>
  <path class="st0" d="M480 113.4V67.6c0-2.5 1.5-3.8 3.9-3.8h3.2c2.5 0 3.8 1.4 3.8 3.8v6.6c2.3-7.5 9.2-11.6 17.8-11.6 11.8 0 20.5 7.7 20.5 24.4v26.3c0 2.5-1.5 3.8-3.9 3.8h-3.2c-2.5 0-3.8-1.4-3.8-3.8V87.2c0-11-5-14.9-10.7-14.9 -5.5 0-16.6 3.7-16.6 19.9v21.2c0 2.5-1.4 3.8-3.8 3.8h-3.2C481.5 117.2 480 115.8 480 113.4z"/>
  <path class="st0" d="M537.1 90.5c0-15.3 10.6-27.8 26.4-27.8 7.1 0 14.1 2.5 19.1 9.6V44c0-2.5 1.5-3.8 3.9-3.8h3.2c2.5 0 3.8 1.4 3.8 3.8v69.4c0 2.5-1.4 3.8-3.8 3.8h-3.2c-2.5 0-3.9-1.4-3.9-3.8v-4.6c-5 7.1-11.9 9.6-19.1 9.6C547.7 118.4 537.1 105.8 537.1 90.5zM582.9 90.5c-0.1-10.6-7.2-18.3-17.8-18.3 -10.8 0-16.9 8.4-16.9 18.3 0 10 6.2 18.3 16.9 18.3C575.6 108.8 582.8 101 582.9 90.5z"/>
  <path class="st0" d="M614.2 136.6l8.2-21.4 -20.5-46.9c-1.2-2.7 0.1-4.5 3-4.5h4.3c2.2 0 3.6 1 4.4 3l14.8 36.1 13.6-36c0.7-2.1 2.3-3.1 4.6-3.1h4.4c2.9 0 4.2 1.7 3 4.5l-29.7 69.8c-0.9 2.1-2.2 3-4.5 3h-2.6C614.3 141.1 613.1 139.3 614.2 136.6z"/>
  <path class="st0" d="M74.8 0C33.5 0 0 33.5 0 74.8s33.5 74.8 74.8 74.8c41.3 0 74.8-33.5 74.8-74.8S116.1 0 74.8 0zM74.8 103C59.8 103 47 90.4 47 74.9 47 59.4 59.8 47 74.8 47c15.1 0 28 12.4 28 27.9C102.8 90.4 89.9 103 74.8 103z"/>
  <radialGradient id="SVGID_1_" cx="74.94" cy="74.6" r="71.75" gradientUnits="userSpaceOnUse">
    <stop offset="0.5" stop-color="#D60080"/>
    <stop offset="1" stop-color="#EC008C"/>
  </radialGradient>
  <path class="st1" d="M95.6 52.2c0 0 9.4-2.4 18.3-11.2s10.8-17.9 10.8-17.9C111.3 9.7 93.8 3.1 76.3 3c0 0 5 9.4 5 20.2s-5 21-5 21C83.7 44.5 90.4 47.5 95.6 52.2z"/>
  <radialGradient id="SVGID_2_" cx="74.65" cy="75.34" r="72.31" gradientUnits="userSpaceOnUse">
    <stop offset="0.5" stop-color="#98448F"/>
    <stop offset="1" stop-color="#A74C9D"/>
  </radialGradient>
  <path class="st2" d="M105.7 73.5c0 0 8.3 5 20.9 5s20.3-5 20.3-5c0-18.9-7.7-36-20.1-48.4 0 0-3.1 10.1-10.8 17.8S97.5 54.2 97.5 54.2C102.6 59.7 105.3 66.6 105.7 73.5z"/>
  <radialGradient id="SVGID_3_" cx="75.15" cy="74.93" r="71.54" gradientUnits="userSpaceOnUse">
    <stop offset="0.25" stop-color="#5D2684"/>
    <stop offset="1" stop-color="#662D91"/>
  </radialGradient>
  <path class="st3" d="M97.6 95.8c0 0 2.4 9.4 11.2 18.3s17.9 10.8 17.9 10.8c13.3-13.4 20-30.9 20-48.4 0 0-9.4 5-20.2 5 -10.8 0-21-5-21-5C105.2 83.9 102.3 90.7 97.6 95.8z"/>
  <radialGradient id="SVGID_4_" cx="74.96" cy="75.21" r="72.26" gradientUnits="userSpaceOnUse">
    <stop offset="0.5" stop-color="#2D3D8E"/>
    <stop offset="1" stop-color="#293683"/>
  </radialGradient>
  <path class="st4" d="M76.3 106c0 0-5 8.3-5 20.9s5 20.3 5 20.3c18.9 0 36-7.7 48.4-20.1 0 0-10.1-3.1-17.8-10.8S95.6 97.8 95.6 97.8C90.1 102.9 83.2 105.6 76.3 106z"/>
  <radialGradient id="SVGID_5_" cx="74.94" cy="74.76" r="72.5" gradientUnits="userSpaceOnUse">
    <stop offset="0.5" stop-color="#ED1C24"/>
    <stop offset="1" stop-color="#D71920"/>
  </radialGradient>
  <path class="st5" d="M54 97.9c0 0-9.4 2.4-18.3 11.2S24.9 127 24.9 127c13.4 13.3 30.9 20 48.4 20 0 0-5-9.4-5-20.2s5-21 5-21C66 105.6 59.2 102.6 54 97.9z"/>
  <radialGradient id="SVGID_6_" cx="74.97" cy="75.18" r="72.3" gradientUnits="userSpaceOnUse">
    <stop offset="0.25" stop-color="#DB5C1E"/>
    <stop offset="1" stop-color="#F26522"/>
  </radialGradient>
  <path class="st6" d="M44 76.5c0 0-8.3-5-20.9-5s-20.3 5-20.3 5c0 18.9 7.7 36 20.1 48.4 0 0 3.1-10.1 10.8-17.8s18.4-11.3 18.4-11.3C47 90.3 44.3 83.4 44 76.5z"/>
  <radialGradient id="SVGID_7_" cx="74.9" cy="75.19" r="72.82" gradientUnits="userSpaceOnUse">
    <stop offset="0.25" stop-color="#EBC919"/>
    <stop offset="1" stop-color="#FFDE17"/>
  </radialGradient>
  <path class="st7" d="M52 54c0 0-2.4-9.4-11.2-18.3S22.9 24.9 22.9 24.9c-13.3 13.4-20 30.9-20 48.4 0 0 9.4-5 20.2-5s21 5 21 5C44.3 66 47.3 59.2 52 54z"/>
  <radialGradient id="SVGID_8_" cx="74.73" cy="75.47" r="73.03" gradientUnits="userSpaceOnUse">
    <stop offset="0.51" stop-color="#94BB34"/>
    <stop offset="1" stop-color="#A3CD3A"/>
  </radialGradient>
  <path class="st8" d="M73.4 44c0 0 5-8.3 5-20.9s-5-20.3-5-20.3c-18.9 0-36 7.7-48.4 20.1 0 0 10.1 3.1 17.8 10.8s11.3 18.4 11.3 18.4C59.6 47 66.5 44.3 73.4 44z"/>
  <path class="st9" d="M74.8 9.6c24.5 0 46.2 12 59.5 30.5 -12-20.3-34.2-33.9-59.5-33.9S27.4 19.8 15.3 40.1C28.6 21.7 50.3 9.6 74.8 9.6z"/>
  <path class="st9" d="M74.8 109.3c-12.9 0-24.1-7-30-17.4 4.9 11.7 16.5 19.9 30 19.9 13.5 0 25.1-8.2 30-19.9C98.9 102.3 87.7 109.3 74.8 109.3z"/>
</svg>
